<svg width="24" height="24" viewBox="0 0 24 24" fill="none" xmlns="http://www.w3.org/2000/svg">
<path d="M18 18C18 17.7679 17.9152 17.567 17.7456 17.3973C17.5759 17.2277 17.375 17.1429 17.1429 17.1429C16.9107 17.1429 16.7099 17.2277 16.5402 17.3973C16.3706 17.567 16.2857 17.7679 16.2857 18C16.2857 18.2321 16.3706 18.433 16.5402 18.6027C16.7099 18.7723 16.9107 18.8571 17.1429 18.8571C17.375 18.8571 17.5759 18.7723 17.7456 18.6027C17.9152 18.433 18 18.2321 18 18ZM21.4286 18C21.4286 17.7679 21.3438 17.567 21.1741 17.3973C21.0045 17.2277 20.8036 17.1429 20.5715 17.1429C20.3393 17.1429 20.1384 17.2277 19.9688 17.3973C19.7991 17.567 19.7143 17.7679 19.7143 18C19.7143 18.2321 19.7991 18.433 19.9688 18.6027C20.1384 18.7723 20.3393 18.8571 20.5715 18.8571C20.8036 18.8571 21.0045 18.7723 21.1741 18.6027C21.3438 18.433 21.4286 18.2321 21.4286 18ZM23.1429 15V19.2857C23.1429 19.6429 23.0179 19.9464 22.7679 20.1964C22.5179 20.4464 22.2143 20.5714 21.8572 20.5714H2.14289C1.78575 20.5714 1.48218 20.4464 1.23218 20.1964C0.982178 19.9464 0.857178 19.6429 0.857178 19.2857V15C0.857178 14.6429 0.982178 14.3393 1.23218 14.0893C1.48218 13.8393 1.78575 13.7143 2.14289 13.7143H8.37057L10.1786 15.5357C10.6965 16.0357 11.3036 16.2857 12 16.2857C12.6965 16.2857 13.3036 16.0357 13.8215 15.5357L15.6429 13.7143H21.8572C22.2143 13.7143 22.5179 13.8393 22.7679 14.0893C23.0179 14.3393 23.1429 14.6429 23.1429 15ZM18.7902 7.37946C18.942 7.74554 18.8795 8.05804 18.6027 8.31696L12.6027 14.317C12.442 14.4866 12.2411 14.5714 12 14.5714C11.759 14.5714 11.5581 14.4866 11.3974 14.317L5.39736 8.31696C5.12057 8.05804 5.05807 7.74554 5.20986 7.37946C5.36164 7.03125 5.62503 6.85714 6.00003 6.85714H9.42861V0.857143C9.42861 0.625 9.51343 0.424107 9.68307 0.254464C9.85271 0.0848214 10.0536 0 10.2857 0H13.7143C13.9465 0 14.1474 0.0848214 14.317 0.254464C14.4866 0.424107 14.5715 0.625 14.5715 0.857143V6.85714H18C18.375 6.85714 18.6384 7.03125 18.7902 7.37946Z" fill="white"/>
</svg>
