<svg width="24" height="24" viewBox="0 0 24 24" fill="none" xmlns="http://www.w3.org/2000/svg">
<path d="M9.75 4.12505H6V14.0859C6 16.5506 5.15475 17.2388 3.68381 17.2388C2.99452 17.2388 2.37375 17.1206 1.89084 16.9545L1.5 19.8705C2.18906 20.1078 3.24652 20.25 4.07377 20.25C7.45102 20.25 9.75 18.6623 9.75 14.1103V4.12505ZM17.928 3.75C14.2978 3.75 12 5.81241 12 8.53847C12 10.8861 13.7696 12.356 16.3425 13.304C18.2035 13.9677 18.939 14.5606 18.939 15.5324C18.939 16.5991 18.0888 17.2867 16.4805 17.2867C14.987 17.2867 13.6311 16.788 12.7121 16.2904V16.2894L12 19.2528C12.8737 19.7515 14.505 20.2492 16.2735 20.2492C20.5244 20.2491 22.5 17.9733 22.5 15.2946C22.5 13.0188 21.2363 11.5493 18.5026 10.5057C16.4805 9.69984 15.6306 9.24966 15.6306 8.23027C15.6306 7.42402 16.3659 6.68953 17.8826 6.68953C19.3754 6.68953 20.4018 7.19142 21 7.50005L21.8965 4.50005C20.959 4.08844 19.6963 3.75 17.928 3.75Z" fill="white"/>
</svg>
