<svg width="24" height="24" viewBox="0 0 24 24" fill="none" xmlns="http://www.w3.org/2000/svg">
<g clip-path="url(#clip0_405_26)">
<path d="M24 3.92201C23.841 3.72901 23.635 3.46901 23.432 3.20601L23.37 3.12101V3.11101C23.12 2.77101 22.94 2.82101 22.74 2.87101C22.54 2.92101 17.97 3.74101 17.69 3.77101C17.41 3.82101 17.5 3.97101 17.62 4.13101L21.62 9.63301L24 9.06401V3.92201ZM0.02 14.826L4.35 13.786C4.7 13.706 4.61 13.666 4.44 13.356L0.02 5.72201V14.826ZM3.2 24H10.39C9.45 22.469 6.89 17.847 5.56 15.436H5.55V15.426L0 16.877V20.809C0.006 22.572 1.436 24 3.2 24Z" fill="white"/>
<path d="M24 12.775V10.584L22.65 10.955L22.75 11.095L24 12.775Z" fill="white"/>
<path d="M20.16 9.984L15.63 3.561C15.25 3.031 15.63 2.791 16.25 2.691C16.85 2.581 22.09 1.701 22.55 1.641C22.92 1.581 23.23 1.461 23.75 1.941C23.27 0.8 22.14 0 20.82 0H3.2C3.2 0 3.197 0 3.195 0C1.647 0 0.358 1.106 0.0699997 2.591L6.46 13.265L20.16 9.984ZM24 15.126L21.44 11.625C21.28 11.375 21.19 11.325 20.8 11.455L7.44 14.936C7.44 14.936 11.54 22.039 11.85 22.489C12.17 22.949 12.36 22.909 12.61 22.809C12.79 22.729 20.41 20.148 24 18.937V15.126ZM23.99 21.059L15.8 23.99H20.82C22.5 23.99 23.87 22.689 23.99 21.059Z" fill="white"/>
</g>
<defs>
<clipPath id="clip0_405_26">
<rect width="24" height="24" fill="white"/>
</clipPath>
</defs>
</svg>
