<svg width="51" height="27" viewBox="0 0 51 27" fill="none" xmlns="http://www.w3.org/2000/svg">
<path d="M17.6 3.52C17.6 2.74667 17.7733 2.08 18.12 1.52C18.4933 0.933333 19.04 0.64 19.76 0.64C20.3733 0.64 20.92 0.76 21.4 1C21.88 1.24 22.12 1.64 22.12 2.2C22.12 3.29333 22.0667 4.82667 21.96 6.8C21.8533 8.72 21.8 10.1467 21.8 11.08C21.8 12.5467 21.8533 14.5067 21.96 16.96C22.0667 19.3067 22.12 21.0267 22.12 22.12C22.12 23 22.1067 23.6533 22.08 24.08C22.08 24.5067 21.84 24.9333 21.36 25.36C20.9067 25.76 20.2 25.96 19.24 25.96C18.7333 25.96 18.2933 25.88 17.92 25.72C17.5733 25.5333 17.3333 25.3333 17.2 25.12C15.9467 23.6 14.12 21.0133 11.72 17.36C9.02667 13.28 6.82667 10.16 5.12 8C5.33333 9.92 5.44 12.2667 5.44 15.04C5.44 16.2667 5.41333 17.8667 5.36 19.84C5.33333 21.7867 5.28 23.0667 5.2 23.68C5.09333 24.4533 4.85333 25.0533 4.48 25.48C4.13333 25.88 3.57333 26.08 2.8 26.08C2.21333 26.08 1.77333 25.92 1.48 25.6C1.21333 25.2533 1.05333 24.6667 1 23.84C0.973333 22.7467 1.04 21.1067 1.2 18.92C1.22667 18.5733 1.26667 17.9733 1.32 17.12C1.37333 16.2667 1.4 15.5067 1.4 14.84C1.4 13 1.30667 10.8933 1.12 8.52C0.96 5.90667 0.88 3.97333 0.88 2.72C0.88 2.08 1.10667 1.58667 1.56 1.24C2.04 0.893332 2.58667 0.719999 3.2 0.719999C3.73333 0.719999 4.29333 0.853332 4.88 1.12C7.17333 4 10.28 8.29333 14.2 14L17.96 19.76C17.9867 19.3333 18 18.7333 18 17.96C18 16.6 17.9733 15.1333 17.92 13.56C17.8667 11.9867 17.8267 10.92 17.8 10.36C17.6667 7.77333 17.6 5.49333 17.6 3.52ZM46.2322 7.48C45.8322 7.21333 45.4455 6.90667 45.0722 6.56C44.1122 5.81333 43.2989 5.26667 42.6322 4.92C41.9655 4.54667 41.2189 4.36 40.3922 4.36C39.2189 4.36 38.0455 4.50667 36.8722 4.8C35.7255 5.09333 34.7789 5.50667 34.0322 6.04C32.9122 6.86667 32.1522 7.96 31.7522 9.32C31.3522 10.6533 31.1522 12.2933 31.1522 14.24C31.1522 16.2933 31.7922 18.12 33.0722 19.72C33.8455 20.6 34.7789 21.28 35.8722 21.76C36.9922 22.24 38.1122 22.48 39.2322 22.48C41.8189 22.48 43.7389 21.76 44.9922 20.32C45.8989 19.1733 46.3522 17.7733 46.3522 16.12C46.3522 15.8267 46.1389 15.6267 45.7122 15.52C45.2855 15.4133 44.6722 15.36 43.8722 15.36C43.4722 15.36 42.8455 15.3067 41.9922 15.2C41.7522 15.1733 41.4855 15.1467 41.1922 15.12C40.9255 15.0933 40.6455 15.08 40.3522 15.08C39.5789 15.08 38.9655 14.9333 38.5122 14.64C38.0589 14.3467 37.8322 13.9733 37.8322 13.52C37.8322 12.88 38.0455 12.4133 38.4722 12.12C38.8989 11.8 39.4722 11.64 40.1922 11.64C41.0189 11.64 42.2855 11.6933 43.9922 11.8C45.5922 11.9067 46.7255 11.96 47.3922 11.96C48.3255 11.96 49.0722 12.2533 49.6322 12.84C50.2189 13.4267 50.5122 14.28 50.5122 15.4C50.5122 16.44 50.2855 17.6533 49.8322 19.04C49.3789 20.4267 48.7389 21.6667 47.9122 22.76C47.1122 23.8533 45.9255 24.6933 44.3522 25.28C42.8055 25.8667 41.0989 26.16 39.2322 26.16C37.7122 26.16 36.2055 25.8933 34.7122 25.36C33.2189 24.8 31.9655 24.0533 30.9522 23.12C29.7255 21.9733 28.7522 20.6133 28.0322 19.04C27.3389 17.44 26.9922 15.8533 26.9922 14.28C26.9922 11.8533 27.4189 9.58667 28.2722 7.48C29.1522 5.34667 30.4855 3.69333 32.2722 2.52C33.0722 1.98667 34.2989 1.54667 35.9522 1.2C37.6055 0.853333 39.0589 0.679999 40.3122 0.679999C42.0722 0.679999 43.6722 1.06667 45.1122 1.84C46.5522 2.61333 47.6722 3.57333 48.4722 4.72C48.7922 5.2 48.9522 5.62667 48.9522 6C48.9522 6.42667 48.7655 6.82667 48.3922 7.2C48.0189 7.57333 47.6455 7.76 47.2722 7.76C47.1122 7.76 46.9255 7.73333 46.7122 7.68C46.4989 7.62667 46.3389 7.56 46.2322 7.48Z" fill="#9505AC"/>
</svg>
