<svg width="24" height="24" viewBox="0 0 24 24" fill="none" xmlns="http://www.w3.org/2000/svg">
<path d="M16.823 10.154L16.309 12.88C17.562 12.88 18.638 13.065 18.938 11.478V11.479C19.215 9.99598 18.255 10.154 16.823 10.154ZM6.067 10.154L5.553 12.88C6.839 12.88 7.886 13.041 8.182 11.478V11.479C8.46 9.99598 7.492 10.154 6.067 10.154Z" fill="white"/>
<path d="M12 5.5C5.374 5.5 0 8.408 0 12C0 15.592 5.374 18.5 12 18.5C18.626 18.5 24 15.592 24 12C24 8.408 18.626 5.5 12 5.5ZM5.355 13.911L5.029 15.641H3.653H3.652L4.878 9.125H7.53C8.325 9.125 8.91 9.338 9.274 9.77C9.972 10.596 9.716 12.246 8.738 13.173C7.853 14.028 6.897 13.911 5.355 13.911ZM12.765 13.905C13.343 10.838 13.451 10.584 13.241 10.351C13.038 10.127 12.577 10.173 11.463 10.173L10.758 13.904H9.39L10.616 7.393H11.985L11.659 9.123C12.841 9.123 13.935 9.034 14.464 9.537C15.019 10.063 14.753 10.734 14.153 13.905H12.765ZM19.496 13.174C18.63 14.008 17.734 13.911 16.114 13.911L15.788 15.641H14.408L15.638 9.125H18.289C19.084 9.125 19.669 9.338 20.033 9.77C20.73 10.598 20.474 12.247 19.496 13.174Z" fill="white"/>
</svg>
