<svg width="24" height="24" viewBox="0 0 24 24" fill="none" xmlns="http://www.w3.org/2000/svg">
<path d="M12 17.143C6.183 17.143 0 15.34 0 12C0 8.65999 6.183 6.85699 12 6.85699C17.817 6.85699 24 8.65999 24 12C24 15.34 17.817 17.143 12 17.143ZM12 8.357C5.99 8.357 1.5 10.28 1.5 12C1.5 13.72 5.99 15.643 12 15.643C18.01 15.643 22.5 13.72 22.5 12C22.5 10.28 18.01 8.357 12 8.357Z" fill="white"/>
<path d="M7.774 22.998C7.253 22.998 6.776 22.87 6.367 22.615C3.529 20.853 5.135 14.437 8.086 9.29598C10.574 4.95998 13.802 1.74998 16.309 1.11798C17.182 0.89698 17.978 0.98998 18.612 1.38498C21.45 3.14698 19.844 9.56298 16.893 14.704C14.406 19.04 11.178 22.249 8.67 22.882C8.36 22.96 8.06 22.998 7.774 22.998ZM17.206 2.49998C17.044 2.49998 16.867 2.52398 16.675 2.57298C14.928 3.01298 11.996 5.49298 9.386 10.042C6.315 15.394 5.677 20.422 7.157 21.342C7.441 21.519 7.826 21.548 8.302 21.427C10.05 20.987 12.981 18.506 15.591 13.958C18.663 8.60598 19.301 3.57798 17.82 2.65798C17.65 2.55298 17.445 2.49998 17.206 2.49998Z" fill="white"/>
<path d="M16.226 22.998C15.94 22.998 15.64 22.96 15.33 22.882C12.822 22.249 9.594 19.04 7.107 14.704C4.156 9.56198 2.55 3.14598 5.389 1.38498C6.021 0.98998 6.818 0.89698 7.691 1.11798C10.198 1.74998 13.426 4.95998 15.914 9.29598C18.865 14.438 20.471 20.854 17.633 22.615C17.224 22.87 16.748 22.998 16.226 22.998ZM6.794 2.49998C6.555 2.49998 6.35 2.55298 6.18 2.65798C4.698 3.57798 5.336 8.60598 8.408 13.958C11.018 18.506 13.95 20.986 15.697 21.427C16.174 21.548 16.557 21.519 16.842 21.342C18.323 20.422 17.685 15.394 14.613 10.042C12.003 5.49298 9.071 3.01398 7.324 2.57298C7.133 2.52398 6.956 2.49998 6.794 2.49998Z" fill="white"/>
<path d="M12 14.5C10.622 14.5 9.5 13.379 9.5 12C9.5 10.621 10.622 9.5 12 9.5C13.378 9.5 14.5 10.621 14.5 12C14.5 13.379 13.378 14.5 12 14.5ZM12 11C11.449 11 11 11.448 11 12C11 12.552 11.449 13 12 13C12.551 13 13 12.552 13 12C13 11.448 12.551 11 12 11Z" fill="white"/>
</svg>
