<svg width="506" height="543" viewBox="0 0 506 543" fill="none" xmlns="http://www.w3.org/2000/svg">
<g clip-path="url(#clip0_11_9)">
<mask id="mask0_11_9" style="mask-type:luminance" maskUnits="userSpaceOnUse" x="-299" y="-65" width="805" height="608">
<path d="M506 -65H-299V543H506V-65Z" fill="white"/>
</mask>
<g mask="url(#mask0_11_9)">
<g opacity="0.2" filter="url(#filter0_f_11_9)">
<path d="M-581.159 -455.853L-606 -431.012L-170.193 4.7951L133.843 294.214L-145.352 -20.0459L-581.159 -455.853Z" fill="url(#paint0_linear_11_9)"/>
</g>
<g opacity="0.32" filter="url(#filter1_f_11_9)">
<path d="M-374.074 -445.376L-398.915 -420.535L36.892 15.2726L340.929 304.691L61.733 -9.56839L-374.074 -445.376Z" fill="url(#paint1_linear_11_9)"/>
</g>
<g opacity="0.32" filter="url(#filter2_f_11_9)">
<path d="M-294.568 -552L-319.409 -527.159L116.398 -91.3516L420.434 198.067L141.239 -116.193L-294.568 -552Z" fill="url(#paint2_linear_11_9)"/>
</g>
</g>
</g>
<defs>
<filter id="filter0_f_11_9" x="-686" y="-535.853" width="899.843" height="910.067" filterUnits="userSpaceOnUse" color-interpolation-filters="sRGB">
<feFlood flood-opacity="0" result="BackgroundImageFix"/>
<feBlend mode="normal" in="SourceGraphic" in2="BackgroundImageFix" result="shape"/>
<feGaussianBlur stdDeviation="40" result="effect1_foregroundBlur_11_9"/>
</filter>
<filter id="filter1_f_11_9" x="-478.915" y="-525.376" width="899.844" height="910.067" filterUnits="userSpaceOnUse" color-interpolation-filters="sRGB">
<feFlood flood-opacity="0" result="BackgroundImageFix"/>
<feBlend mode="normal" in="SourceGraphic" in2="BackgroundImageFix" result="shape"/>
<feGaussianBlur stdDeviation="40" result="effect1_foregroundBlur_11_9"/>
</filter>
<filter id="filter2_f_11_9" x="-399.409" y="-632" width="899.843" height="910.067" filterUnits="userSpaceOnUse" color-interpolation-filters="sRGB">
<feFlood flood-opacity="0" result="BackgroundImageFix"/>
<feBlend mode="normal" in="SourceGraphic" in2="BackgroundImageFix" result="shape"/>
<feGaussianBlur stdDeviation="40" result="effect1_foregroundBlur_11_9"/>
</filter>
<linearGradient id="paint0_linear_11_9" x1="-593.58" y1="-443.433" x2="-157.772" y2="-7.62538" gradientUnits="userSpaceOnUse">
<stop stop-color="white"/>
<stop offset="1" stop-color="#D3D8DF"/>
</linearGradient>
<linearGradient id="paint1_linear_11_9" x1="-386.495" y1="-432.955" x2="49.313" y2="2.85209" gradientUnits="userSpaceOnUse">
<stop stop-color="white"/>
<stop offset="1" stop-color="#D3D8DF"/>
</linearGradient>
<linearGradient id="paint2_linear_11_9" x1="-306.989" y1="-539.579" x2="128.819" y2="-103.772" gradientUnits="userSpaceOnUse">
<stop stop-color="white"/>
<stop offset="1" stop-color="#D3D8DF"/>
</linearGradient>
<clipPath id="clip0_11_9">
<rect width="805" height="608" fill="white" transform="translate(-299 -65)"/>
</clipPath>
</defs>
</svg>
