<svg width="24" height="24" viewBox="0 0 24 24" fill="none" xmlns="http://www.w3.org/2000/svg">
<path d="M18.5 9.51002C17.7501 9.25173 17.0881 8.78731 16.59 8.17002C16.041 7.48225 15.3421 6.92916 14.5465 6.55304C13.7509 6.17693 12.8799 5.98777 12 6.00002C10.8164 5.9162 9.64458 6.28126 8.71801 7.02253C7.79143 7.76379 7.17804 8.82685 7 10C7.35067 9.41326 7.87845 8.95289 8.50739 8.68514C9.13633 8.41739 9.834 8.35608 10.5 8.51002C11.2487 8.77583 11.9096 9.24295 12.41 9.86002C12.962 10.5423 13.6623 11.0897 14.4577 11.4605C15.2531 11.8313 16.1226 12.0159 17 12C18.1836 12.0838 19.3554 11.7188 20.282 10.9775C21.2086 10.2363 21.822 9.17319 22 8.00002C21.6557 8.59379 21.1296 9.06112 20.4994 9.33302C19.8691 9.60492 19.1682 9.66697 18.5 9.51002ZM5.5 14.49C6.24995 14.7483 6.91192 15.2127 7.41 15.83C7.95895 16.5178 8.65794 17.0709 9.4535 17.447C10.2491 17.8231 11.1201 18.0123 12 18C13.1836 18.0838 14.3554 17.7188 15.282 16.9775C16.2086 16.2363 16.822 15.1732 17 14C16.6493 14.5868 16.1215 15.0472 15.4926 15.3149C14.8637 15.5826 14.166 15.644 13.5 15.49C12.7513 15.2242 12.0904 14.7571 11.59 14.14C11.0366 13.4594 10.336 12.9133 9.54091 12.5426C8.74587 12.1719 7.8771 11.9864 7 12C5.81637 11.9162 4.64458 12.2813 3.71801 13.0225C2.79143 13.7638 2.17804 14.8269 2 16C2.34431 15.4062 2.87041 14.9389 3.50063 14.667C4.13086 14.3951 4.83181 14.3331 5.5 14.49Z" fill="white"/>
</svg>
