<svg width="32" height="32" viewBox="0 0 32 32" fill="none" xmlns="http://www.w3.org/2000/svg">
<path d="M26.783 0.593018C23.22 0.726018 18.888 5.20202 20.37 9.37602C21.939 13.517 22.944 16.463 23.154 21.084C26.92 17.295 30.379 13.182 30.658 8.40902C30.75 4.53602 28.917 1.68102 26.782 0.594018L26.783 0.593018ZM17.387 17.789C16.852 18.745 16.15 19.783 15.235 20.921C13.312 23.344 11.373 27.319 11.97 31.979C19.913 31.102 22.393 25.141 22.611 21.865C21.114 19.606 18.398 18.216 17.387 17.789ZM1.36901 3.48902C1.08701 7.13502 2.64601 12.556 8.96801 14.281C11.63 15.069 13.495 15.555 15.514 16.288C18.466 17.361 20.783 18.73 22.619 21.093C22.278 17.027 20.604 12.367 17.929 8.73302C14.114 3.54802 7.50801 1.05902 1.36901 3.48902Z" fill="white"/>
</svg>
